# xmcd
#
# Track frame offsets:
#	150
#	3412
#	16381
#	26276
#	44271
#	58667
#	71785
#	89705
#
# Disc length: 1449 seconds
#
# Revision: 0
# Processed by: cddbd v1.5.2PL0 Copyright (c) Steve Scherf et al.
# Submitted via: audiograbber 1.83.01
#
DISCID=6305a708
DTITLE=Dr. Geek and the Freakshow - Miss Graveyard 1878
DYEAR=2009
DGENRE=Horror Punk
TTITLE0=Intro
TTITLE1=Cenobites
TTITLE2=Dr. Geek Theme
TTITLE3=Miss Graveyard
TTITLE4=The Hunger
TTITLE5=Elm Street 1428
TTITLE6=After Midnight
TTITLE7=Zombie Girlfriend
EXTD=
EXTT0=
EXTT1=
EXTT2=
EXTT3=
EXTT4=
EXTT5=
EXTT6=
EXTT7=
PLAYORDER=
